<svg width="94" height="41" viewBox="0 0 94 41" fill="none" xmlns="http://www.w3.org/2000/svg">
<path d="M11.7769 4.82008C11.7769 5.24471 11.7034 5.66934 11.5564 6.09398C11.4257 6.50228 11.2134 6.89424 10.9194 7.26988C10.6418 7.62918 10.2825 7.94766 9.84152 8.2253C9.40056 8.50294 8.87793 8.70709 8.27365 8.83775V8.93574C8.79627 9.00107 9.30257 9.13173 9.79253 9.32771C10.2825 9.52369 10.7153 9.79317 11.0909 10.1361C11.4666 10.4791 11.7687 10.8956 11.9973 11.3855C12.226 11.8755 12.3403 12.4553 12.3403 13.1249C12.3403 14.0068 12.1362 14.7744 11.7279 15.4277C11.3196 16.0647 10.7806 16.5954 10.111 17.0201C9.44139 17.4284 8.68195 17.7305 7.83269 17.9265C6.99975 18.1225 6.15866 18.2205 5.30939 18.2205C5.01542 18.2205 4.65611 18.2123 4.23148 18.196C3.80685 18.196 3.35772 18.1797 2.88409 18.147C2.4268 18.1307 1.96133 18.098 1.48771 18.049C1.03041 18.0163 0.62211 17.9592 0.262806 17.8775V0.998394C0.932418 0.884069 1.71635 0.794243 2.61461 0.728915C3.51287 0.663587 4.47646 0.630923 5.50538 0.630923C6.20765 0.630923 6.92626 0.696251 7.6612 0.826907C8.41247 0.941231 9.09025 1.15355 9.69453 1.46386C10.2988 1.77416 10.7969 2.19879 11.1889 2.73775C11.5809 3.27671 11.7769 3.97082 11.7769 4.82008ZM2.66361 15.9912C2.77793 16.0238 2.94942 16.0483 3.17807 16.0647C3.40672 16.081 3.6517 16.0973 3.91301 16.1137C4.19065 16.13 4.46013 16.1463 4.72144 16.1627C4.99909 16.1627 5.25223 16.1627 5.48088 16.1627C6.03617 16.1627 6.56696 16.1055 7.07325 15.9912C7.59587 15.8768 8.05317 15.6972 8.44514 15.4522C8.8371 15.2072 9.14741 14.8969 9.37606 14.5213C9.62104 14.1456 9.74353 13.6965 9.74353 13.1739C9.74353 12.5206 9.59654 12.0062 9.30257 11.6305C9.02492 11.2386 8.65745 10.9446 8.20016 10.7486C7.74286 10.5363 7.2284 10.4056 6.65678 10.3566C6.08516 10.2913 5.52171 10.2586 4.96642 10.2586H2.66361V15.9912ZM4.011 8.34779C4.32131 8.34779 4.68061 8.33962 5.08891 8.32329C5.49721 8.29063 5.84018 8.25796 6.11783 8.2253C6.52613 8.11098 6.90993 7.97216 7.26923 7.80884C7.64487 7.62918 7.97151 7.42503 8.24915 7.19639C8.5268 6.95141 8.74728 6.67376 8.9106 6.36345C9.07392 6.03681 9.15558 5.66934 9.15558 5.26104C9.15558 4.70576 9.04125 4.26479 8.81261 3.93815C8.60029 3.59518 8.31448 3.33387 7.95518 3.15422C7.59587 2.97456 7.18757 2.85207 6.73028 2.78675C6.27298 2.72142 5.80752 2.68876 5.33389 2.68876C4.76227 2.68876 4.23148 2.70509 3.74152 2.73775C3.26789 2.75408 2.90859 2.77858 2.66361 2.81125V8.34779H4.011ZM15.9568 0.851405H26.3195V2.95823H18.4066V8.1763H25.6335V10.2831H18.4066V15.8932H26.442V18H15.9568V0.851405ZM33.8639 7.09839L32.394 4.69759H32.296L32.59 7.09839V18H30.2872V0.606425H31.6591L40.4049 11.7285L41.8013 14.0068H41.9237L41.6298 11.7285V0.851405H43.9326V18.245H42.5607L33.8639 7.09839ZM49.7717 2.46827H47.8119V0.851405H54.1814V2.46827H52.2215V16.3831H54.1814V18H47.8119V16.3831H49.7717V2.46827ZM58.0628 0.851405H68.4254V2.95823H60.5126V8.42128H67.8619V10.5281H60.5126V18H58.0628V0.851405ZM73.3845 2.46827H71.4247V0.851405H77.7942V2.46827H75.8343V16.3831H77.7942V18H71.4247V16.3831H73.3845V2.46827ZM93.9736 3.00723H88.192V18H85.7422V3.00723H79.9607V0.851405H93.9736V3.00723Z" fill="#FD9644"/>
<path d="M22.4803 32.2831L22.8233 35.3209H22.9212L23.3132 32.2341L26.5715 22.8514H28.9233L32.1325 32.2831L32.5245 35.3209H32.647L33.0144 32.2341L35.2927 22.8514H39.0164L33.8719 40.1225H31.4221L28.0903 30.7888L27.6494 28.143H27.4779L27.0369 30.8133L23.7297 40.1225H21.1574L16.0373 22.8514H20.006L22.4803 32.2831ZM41.9679 24.8112H40.008V22.8514H47.5534V24.8112H45.5936V38.0402H47.5534V40H40.008V38.0402H41.9679V24.8112ZM58.1536 35.2964C58.1536 34.7901 57.9413 34.39 57.5166 34.096C57.092 33.802 56.5612 33.5325 55.9243 33.2875C55.3036 33.0426 54.6259 32.7976 53.8909 32.5526C53.156 32.3076 52.47 31.981 51.8331 31.5727C51.2125 31.1644 50.6899 30.6499 50.2652 30.0293C49.8406 29.4087 49.6283 28.6003 49.6283 27.604C49.6283 26.7548 49.7753 26.0116 50.0692 25.3747C50.3795 24.7214 50.8042 24.1906 51.3431 23.7823C51.8984 23.3577 52.5599 23.0392 53.3275 22.8269C54.1114 22.6146 54.9688 22.5084 55.8998 22.5084C56.9777 22.5084 57.9984 22.6064 58.962 22.8024C59.9419 22.9821 60.7422 23.2434 61.3628 23.5863L60.2114 26.6241C60.0154 26.5098 59.7623 26.3954 59.452 26.2811C59.158 26.1505 58.815 26.0443 58.4231 25.9627C58.0311 25.8647 57.6146 25.7912 57.1737 25.7422C56.7327 25.6768 56.2836 25.6442 55.8263 25.6442C55.0097 25.6442 54.3727 25.7912 53.9154 26.0851C53.4745 26.3628 53.254 26.7548 53.254 27.261C53.254 27.7673 53.4663 28.1756 53.8909 28.4859C54.3156 28.7799 54.8382 29.0576 55.4588 29.3189C56.0957 29.5639 56.7817 29.817 57.5166 30.0783C58.2516 30.3233 58.9293 30.6499 59.55 31.0582C60.1869 31.4502 60.7177 31.9483 61.1423 32.5526C61.567 33.1569 61.7793 33.9327 61.7793 34.8799C61.7793 35.8272 61.616 36.6438 61.2893 37.3297C60.9627 38.0157 60.4972 38.5873 59.8929 39.0446C59.305 39.4855 58.5945 39.8122 57.7616 40.0245C56.9287 40.2368 56.0141 40.343 55.0178 40.343C54.3482 40.343 53.7113 40.3021 53.107 40.2205C52.519 40.1552 51.9719 40.0735 51.4656 39.9755C50.9593 39.8612 50.5102 39.7469 50.1182 39.6325C49.7426 39.5019 49.4405 39.3794 49.2118 39.2651L50.4122 36.2028C50.5919 36.3008 50.8368 36.407 51.1471 36.5213C51.4738 36.6356 51.8331 36.7499 52.2251 36.8643C52.617 36.9622 53.0335 37.0439 53.4745 37.1092C53.9318 37.1746 54.389 37.2072 54.8463 37.2072C55.9243 37.2072 56.7409 37.0521 57.2961 36.7418C57.8678 36.4315 58.1536 35.9497 58.1536 35.2964ZM64.2094 22.8514H75.258V26.0361H67.8351V29.7598H74.572V32.9446H67.8351V36.8153H75.3804V40H64.2094V22.8514Z" fill="#800080" fill-opacity="0.81"/>
</svg>
