<svg width="479" height="83" viewBox="0 0 479 83" fill="none" xmlns="http://www.w3.org/2000/svg">
<path d="M18.88 26.68H7.76L5.92 32H0.04L10.08 4.04H16.6L26.64 32H20.72L18.88 26.68ZM17.36 22.2L13.32 10.52L9.28 22.2H17.36ZM57.9128 9.52C60.6328 9.52 62.8195 10.36 64.4728 12.04C66.1528 13.6933 66.9928 16.0133 66.9928 19V32H61.3928V19.76C61.3928 18.0267 60.9528 16.7067 60.0728 15.8C59.1928 14.8667 57.9928 14.4 56.4728 14.4C54.9528 14.4 53.7395 14.8667 52.8328 15.8C51.9528 16.7067 51.5128 18.0267 51.5128 19.76V32H45.9128V19.76C45.9128 18.0267 45.4728 16.7067 44.5928 15.8C43.7128 14.8667 42.5128 14.4 40.9928 14.4C39.4461 14.4 38.2195 14.8667 37.3128 15.8C36.4328 16.7067 35.9928 18.0267 35.9928 19.76V32H30.3928V9.84H35.9928V12.52C36.7128 11.5867 37.6328 10.8533 38.7528 10.32C39.8995 9.78666 41.1528 9.52 42.5128 9.52C44.2461 9.52 45.7928 9.89333 47.1528 10.64C48.5128 11.36 49.5661 12.4 50.3128 13.76C51.0328 12.48 52.0728 11.4533 53.4328 10.68C54.8195 9.90667 56.3128 9.52 57.9128 9.52ZM70.8669 20.84C70.8669 18.6 71.3069 16.6133 72.1869 14.88C73.0935 13.1467 74.3069 11.8133 75.8269 10.88C77.3735 9.94667 79.0935 9.48 80.9869 9.48C82.6402 9.48 84.0802 9.81333 85.3069 10.48C86.5602 11.1467 87.5602 11.9867 88.3069 13V9.84H93.9469V32H88.3069V28.76C87.5869 29.8 86.5869 30.6667 85.3069 31.36C84.0535 32.0267 82.6002 32.36 80.9469 32.36C79.0802 32.36 77.3735 31.88 75.8269 30.92C74.3069 29.96 73.0935 28.6133 72.1869 26.88C71.3069 25.12 70.8669 23.1067 70.8669 20.84ZM88.3069 20.92C88.3069 19.56 88.0402 18.4 87.5069 17.44C86.9735 16.4533 86.2535 15.7067 85.3469 15.2C84.4402 14.6667 83.4669 14.4 82.4269 14.4C81.3869 14.4 80.4269 14.6533 79.5469 15.16C78.6669 15.6667 77.9469 16.4133 77.3869 17.4C76.8535 18.36 76.5869 19.5067 76.5869 20.84C76.5869 22.1733 76.8535 23.3467 77.3869 24.36C77.9469 25.3467 78.6669 26.1067 79.5469 26.64C80.4535 27.1733 81.4135 27.44 82.4269 27.44C83.4669 27.44 84.4402 27.1867 85.3469 26.68C86.2535 26.1467 86.9735 25.4 87.5069 24.44C88.0402 23.4533 88.3069 22.28 88.3069 20.92ZM104.536 27.4H114.416V32H98.1763V27.48L107.856 14.44H98.2163V9.84H114.296V14.36L104.536 27.4ZM128.592 32.36C126.459 32.36 124.539 31.8933 122.832 30.96C121.126 30 119.779 28.6533 118.792 26.92C117.832 25.1867 117.352 23.1867 117.352 20.92C117.352 18.6533 117.846 16.6533 118.832 14.92C119.846 13.1867 121.219 11.8533 122.952 10.92C124.686 9.96 126.619 9.48 128.752 9.48C130.886 9.48 132.819 9.96 134.552 10.92C136.286 11.8533 137.646 13.1867 138.632 14.92C139.646 16.6533 140.152 18.6533 140.152 20.92C140.152 23.1867 139.632 25.1867 138.592 26.92C137.579 28.6533 136.192 30 134.432 30.96C132.699 31.8933 130.752 32.36 128.592 32.36ZM128.592 27.48C129.606 27.48 130.552 27.24 131.432 26.76C132.339 26.2533 133.059 25.5067 133.592 24.52C134.126 23.5333 134.392 22.3333 134.392 20.92C134.392 18.8133 133.832 17.2 132.712 16.08C131.619 14.9333 130.272 14.36 128.672 14.36C127.072 14.36 125.726 14.9333 124.632 16.08C123.566 17.2 123.032 18.8133 123.032 20.92C123.032 23.0267 123.552 24.6533 124.592 25.8C125.659 26.92 126.992 27.48 128.592 27.48ZM156.54 9.52C159.18 9.52 161.313 10.36 162.94 12.04C164.567 13.6933 165.38 16.0133 165.38 19V32H159.78V19.76C159.78 18 159.34 16.6533 158.46 15.72C157.58 14.76 156.38 14.28 154.86 14.28C153.313 14.28 152.087 14.76 151.18 15.72C150.3 16.6533 149.86 18 149.86 19.76V32H144.26V9.84H149.86V12.6C150.607 11.64 151.553 10.8933 152.7 10.36C153.873 9.8 155.153 9.52 156.54 9.52ZM185.837 13.08C186.557 12.0133 187.543 11.1467 188.797 10.48C190.077 9.81333 191.53 9.48 193.157 9.48C195.05 9.48 196.757 9.94667 198.277 10.88C199.823 11.8133 201.037 13.1467 201.917 14.88C202.823 16.5867 203.277 18.5733 203.277 20.84C203.277 23.1067 202.823 25.12 201.917 26.88C201.037 28.6133 199.823 29.96 198.277 30.92C196.757 31.88 195.05 32.36 193.157 32.36C191.503 32.36 190.05 32.04 188.797 31.4C187.57 30.7333 186.583 29.88 185.837 28.84V32H180.237V2.4H185.837V13.08ZM197.557 20.84C197.557 19.5067 197.277 18.36 196.717 17.4C196.183 16.4133 195.463 15.6667 194.557 15.16C193.677 14.6533 192.717 14.4 191.677 14.4C190.663 14.4 189.703 14.6667 188.797 15.2C187.917 15.7067 187.197 16.4533 186.637 17.44C186.103 18.4267 185.837 19.5867 185.837 20.92C185.837 22.2533 186.103 23.4133 186.637 24.4C187.197 25.3867 187.917 26.1467 188.797 26.68C189.703 27.1867 190.663 27.44 191.677 27.44C192.717 27.44 193.677 27.1733 194.557 26.64C195.463 26.1067 196.183 25.3467 196.717 24.36C197.277 23.3733 197.557 22.2 197.557 20.84ZM205.906 20.84C205.906 18.6 206.346 16.6133 207.226 14.88C208.133 13.1467 209.346 11.8133 210.866 10.88C212.413 9.94667 214.133 9.48 216.026 9.48C217.679 9.48 219.119 9.81333 220.346 10.48C221.599 11.1467 222.599 11.9867 223.346 13V9.84H228.986V32H223.346V28.76C222.626 29.8 221.626 30.6667 220.346 31.36C219.093 32.0267 217.639 32.36 215.986 32.36C214.119 32.36 212.413 31.88 210.866 30.92C209.346 29.96 208.133 28.6133 207.226 26.88C206.346 25.12 205.906 23.1067 205.906 20.84ZM223.346 20.92C223.346 19.56 223.079 18.4 222.546 17.44C222.013 16.4533 221.293 15.7067 220.386 15.2C219.479 14.6667 218.506 14.4 217.466 14.4C216.426 14.4 215.466 14.6533 214.586 15.16C213.706 15.6667 212.986 16.4133 212.426 17.4C211.893 18.36 211.626 19.5067 211.626 20.84C211.626 22.1733 211.893 23.3467 212.426 24.36C212.986 25.3467 213.706 26.1067 214.586 26.64C215.493 27.1733 216.453 27.44 217.466 27.44C218.506 27.44 219.479 27.1867 220.386 26.68C221.293 26.1467 222.013 25.4 222.546 24.44C223.079 23.4533 223.346 22.28 223.346 20.92ZM242.935 32.36C241.122 32.36 239.495 32.04 238.055 31.4C236.615 30.7333 235.469 29.84 234.615 28.72C233.789 27.6 233.335 26.36 233.255 25H238.895C239.002 25.8533 239.415 26.56 240.135 27.12C240.882 27.68 241.802 27.96 242.895 27.96C243.962 27.96 244.789 27.7467 245.375 27.32C245.989 26.8933 246.295 26.3467 246.295 25.68C246.295 24.96 245.922 24.4267 245.175 24.08C244.455 23.7067 243.295 23.3067 241.695 22.88C240.042 22.48 238.682 22.0667 237.615 21.64C236.575 21.2133 235.669 20.56 234.895 19.68C234.149 18.8 233.775 17.6133 233.775 16.12C233.775 14.8933 234.122 13.7733 234.815 12.76C235.535 11.7467 236.549 10.9467 237.855 10.36C239.189 9.77333 240.749 9.48 242.535 9.48C245.175 9.48 247.282 10.1467 248.855 11.48C250.429 12.7867 251.295 14.56 251.455 16.8H246.095C246.015 15.92 245.642 15.2267 244.975 14.72C244.335 14.1867 243.469 13.92 242.375 13.92C241.362 13.92 240.575 14.1067 240.015 14.48C239.482 14.8533 239.215 15.3733 239.215 16.04C239.215 16.7867 239.589 17.36 240.335 17.76C241.082 18.1333 242.242 18.52 243.815 18.92C245.415 19.32 246.735 19.7333 247.775 20.16C248.815 20.5867 249.709 21.2533 250.455 22.16C251.229 23.04 251.629 24.2133 251.655 25.68C251.655 26.96 251.295 28.1067 250.575 29.12C249.882 30.1333 248.869 30.9333 247.535 31.52C246.229 32.08 244.695 32.36 242.935 32.36ZM276.852 20.44C276.852 21.24 276.799 21.96 276.692 22.6H260.492C260.626 24.2 261.186 25.4533 262.172 26.36C263.159 27.2667 264.372 27.72 265.812 27.72C267.892 27.72 269.372 26.8267 270.252 25.04H276.292C275.652 27.1733 274.426 28.9333 272.612 30.32C270.799 31.68 268.572 32.36 265.932 32.36C263.799 32.36 261.879 31.8933 260.172 30.96C258.492 30 257.172 28.6533 256.212 26.92C255.279 25.1867 254.812 23.1867 254.812 20.92C254.812 18.6267 255.279 16.6133 256.212 14.88C257.146 13.1467 258.452 11.8133 260.132 10.88C261.812 9.94667 263.746 9.48 265.932 9.48C268.039 9.48 269.919 9.93333 271.572 10.84C273.252 11.7467 274.546 13.04 275.452 14.72C276.386 16.3733 276.852 18.28 276.852 20.44ZM271.052 18.84C271.026 17.4 270.506 16.2533 269.492 15.4C268.479 14.52 267.239 14.08 265.772 14.08C264.386 14.08 263.212 14.5067 262.252 15.36C261.319 16.1867 260.746 17.3467 260.532 18.84H271.052ZM279.5 20.84C279.5 18.6 279.94 16.6133 280.82 14.88C281.726 13.1467 282.953 11.8133 284.5 10.88C286.046 9.94667 287.766 9.48 289.66 9.48C291.1 9.48 292.473 9.8 293.78 10.44C295.086 11.0533 296.126 11.88 296.9 12.92V2.4H302.58V32H296.9V28.72C296.206 29.8133 295.233 30.6933 293.98 31.36C292.726 32.0267 291.273 32.36 289.62 32.36C287.753 32.36 286.046 31.88 284.5 30.92C282.953 29.96 281.726 28.6133 280.82 26.88C279.94 25.12 279.5 23.1067 279.5 20.84ZM296.94 20.92C296.94 19.56 296.673 18.4 296.14 17.44C295.606 16.4533 294.886 15.7067 293.98 15.2C293.073 14.6667 292.1 14.4 291.06 14.4C290.02 14.4 289.06 14.6533 288.18 15.16C287.3 15.6667 286.58 16.4133 286.02 17.4C285.486 18.36 285.22 19.5067 285.22 20.84C285.22 22.1733 285.486 23.3467 286.02 24.36C286.58 25.3467 287.3 26.1067 288.18 26.64C289.086 27.1733 290.046 27.44 291.06 27.44C292.1 27.44 293.073 27.1867 293.98 26.68C294.886 26.1467 295.606 25.4 296.14 24.44C296.673 23.4533 296.94 22.28 296.94 20.92ZM10.24 82.36C8.42667 82.36 6.8 82.04 5.36 81.4C3.92 80.7333 2.77333 79.84 1.92 78.72C1.09333 77.6 0.64 76.36 0.56 75H6.2C6.30667 75.8533 6.72 76.56 7.44 77.12C8.18667 77.68 9.10667 77.96 10.2 77.96C11.2667 77.96 12.0933 77.7467 12.68 77.32C13.2933 76.8933 13.6 76.3467 13.6 75.68C13.6 74.96 13.2267 74.4267 12.48 74.08C11.76 73.7067 10.6 73.3067 9 72.88C7.34667 72.48 5.98667 72.0667 4.92 71.64C3.88 71.2133 2.97333 70.56 2.2 69.68C1.45333 68.8 1.08 67.6133 1.08 66.12C1.08 64.8933 1.42667 63.7733 2.12 62.76C2.84 61.7467 3.85333 60.9467 5.16 60.36C6.49333 59.7733 8.05333 59.48 9.84 59.48C12.48 59.48 14.5867 60.1467 16.16 61.48C17.7333 62.7867 18.6 64.56 18.76 66.8H13.4C13.32 65.92 12.9467 65.2267 12.28 64.72C11.64 64.1867 10.7733 63.92 9.68 63.92C8.66667 63.92 7.88 64.1067 7.32 64.48C6.78667 64.8533 6.52 65.3733 6.52 66.04C6.52 66.7867 6.89333 67.36 7.64 67.76C8.38667 68.1333 9.54667 68.52 11.12 68.92C12.72 69.32 14.04 69.7333 15.08 70.16C16.12 70.5867 17.0133 71.2533 17.76 72.16C18.5333 73.04 18.9333 74.2133 18.96 75.68C18.96 76.96 18.6 78.1067 17.88 79.12C17.1867 80.1333 16.1733 80.9333 14.84 81.52C13.5333 82.08 12 82.36 10.24 82.36ZM44.1569 70.44C44.1569 71.24 44.1035 71.96 43.9969 72.6H27.7969C27.9302 74.2 28.4902 75.4533 29.4769 76.36C30.4635 77.2667 31.6769 77.72 33.1169 77.72C35.1969 77.72 36.6769 76.8267 37.5569 75.04H43.5969C42.9569 77.1733 41.7302 78.9333 39.9169 80.32C38.1035 81.68 35.8769 82.36 33.2369 82.36C31.1035 82.36 29.1835 81.8933 27.4769 80.96C25.7969 80 24.4769 78.6533 23.5169 76.92C22.5835 75.1867 22.1169 73.1867 22.1169 70.92C22.1169 68.6267 22.5835 66.6133 23.5169 64.88C24.4502 63.1467 25.7569 61.8133 27.4369 60.88C29.1169 59.9467 31.0502 59.48 33.2369 59.48C35.3435 59.48 37.2235 59.9333 38.8769 60.84C40.5569 61.7467 41.8502 63.04 42.7569 64.72C43.6902 66.3733 44.1569 68.28 44.1569 70.44ZM38.3569 68.84C38.3302 67.4 37.8102 66.2533 36.7969 65.4C35.7835 64.52 34.5435 64.08 33.0769 64.08C31.6902 64.08 30.5169 64.5067 29.5569 65.36C28.6235 66.1867 28.0502 67.3467 27.8369 68.84H38.3569ZM53.8444 63.28C54.5644 62.1067 55.4977 61.1867 56.6444 60.52C57.8177 59.8533 59.151 59.52 60.6444 59.52V65.4H59.1644C57.4044 65.4 56.071 65.8133 55.1644 66.64C54.2844 67.4667 53.8444 68.9067 53.8444 70.96V82H48.2444V59.84H53.8444V63.28ZM73.6563 76.84L79.2563 59.84H85.2163L77.0163 82H70.2163L62.0563 59.84H68.0563L73.6563 76.84ZM91.2016 57.2C90.2149 57.2 89.3882 56.8933 88.7216 56.28C88.0816 55.64 87.7616 54.8533 87.7616 53.92C87.7616 52.9867 88.0816 52.2133 88.7216 51.6C89.3882 50.96 90.2149 50.64 91.2016 50.64C92.1882 50.64 93.0016 50.96 93.6416 51.6C94.3082 52.2133 94.6416 52.9867 94.6416 53.92C94.6416 54.8533 94.3082 55.64 93.6416 56.28C93.0016 56.8933 92.1882 57.2 91.2016 57.2ZM93.9616 59.84V82H88.3616V59.84H93.9616ZM98.0544 70.92C98.0544 68.6267 98.521 66.6267 99.4544 64.92C100.388 63.1867 101.681 61.8533 103.334 60.92C104.988 59.96 106.881 59.48 109.014 59.48C111.761 59.48 114.028 60.1733 115.814 61.56C117.628 62.92 118.841 64.84 119.454 67.32H113.414C113.094 66.36 112.548 65.6133 111.774 65.08C111.028 64.52 110.094 64.24 108.974 64.24C107.374 64.24 106.108 64.8267 105.174 66C104.241 67.1467 103.774 68.7867 103.774 70.92C103.774 73.0267 104.241 74.6667 105.174 75.84C106.108 76.9867 107.374 77.56 108.974 77.56C111.241 77.56 112.721 76.5467 113.414 74.52H119.454C118.841 76.92 117.628 78.8267 115.814 80.24C114.001 81.6533 111.734 82.36 109.014 82.36C106.881 82.36 104.988 81.8933 103.334 80.96C101.681 80 100.388 78.6667 99.4544 76.96C98.521 75.2267 98.0544 73.2133 98.0544 70.92ZM144.157 70.44C144.157 71.24 144.104 71.96 143.997 72.6H127.797C127.93 74.2 128.49 75.4533 129.477 76.36C130.464 77.2667 131.677 77.72 133.117 77.72C135.197 77.72 136.677 76.8267 137.557 75.04H143.597C142.957 77.1733 141.73 78.9333 139.917 80.32C138.104 81.68 135.877 82.36 133.237 82.36C131.104 82.36 129.184 81.8933 127.477 80.96C125.797 80 124.477 78.6533 123.517 76.92C122.584 75.1867 122.117 73.1867 122.117 70.92C122.117 68.6267 122.584 66.6133 123.517 64.88C124.45 63.1467 125.757 61.8133 127.437 60.88C129.117 59.9467 131.05 59.48 133.237 59.48C135.344 59.48 137.224 59.9333 138.877 60.84C140.557 61.7467 141.85 63.04 142.757 64.72C143.69 66.3733 144.157 68.28 144.157 70.44ZM138.357 68.84C138.33 67.4 137.81 66.2533 136.797 65.4C135.784 64.52 134.544 64.08 133.077 64.08C131.69 64.08 130.517 64.5067 129.557 65.36C128.624 66.1867 128.05 67.3467 127.837 68.84H138.357Z" fill="#171616" fill-opacity="0.85"/>
<path d="M326.06 32.36C324.247 32.36 322.62 32.04 321.18 31.4C319.74 30.7333 318.594 29.84 317.74 28.72C316.914 27.6 316.46 26.36 316.38 25H322.02C322.127 25.8533 322.54 26.56 323.26 27.12C324.007 27.68 324.927 27.96 326.02 27.96C327.087 27.96 327.914 27.7467 328.5 27.32C329.114 26.8933 329.42 26.3467 329.42 25.68C329.42 24.96 329.047 24.4267 328.3 24.08C327.58 23.7067 326.42 23.3067 324.82 22.88C323.167 22.48 321.807 22.0667 320.74 21.64C319.7 21.2133 318.794 20.56 318.02 19.68C317.274 18.8 316.9 17.6133 316.9 16.12C316.9 14.8933 317.247 13.7733 317.94 12.76C318.66 11.7467 319.674 10.9467 320.98 10.36C322.314 9.77333 323.874 9.48 325.66 9.48C328.3 9.48 330.407 10.1467 331.98 11.48C333.554 12.7867 334.42 14.56 334.58 16.8H329.22C329.14 15.92 328.767 15.2267 328.1 14.72C327.46 14.1867 326.594 13.92 325.5 13.92C324.487 13.92 323.7 14.1067 323.14 14.48C322.607 14.8533 322.34 15.3733 322.34 16.04C322.34 16.7867 322.714 17.36 323.46 17.76C324.207 18.1333 325.367 18.52 326.94 18.92C328.54 19.32 329.86 19.7333 330.9 20.16C331.94 20.5867 332.834 21.2533 333.58 22.16C334.354 23.04 334.754 24.2133 334.78 25.68C334.78 26.96 334.42 28.1067 333.7 29.12C333.007 30.1333 331.994 30.9333 330.66 31.52C329.354 32.08 327.82 32.36 326.06 32.36ZM359.977 20.44C359.977 21.24 359.924 21.96 359.817 22.6H343.617C343.751 24.2 344.311 25.4533 345.297 26.36C346.284 27.2667 347.497 27.72 348.937 27.72C351.017 27.72 352.497 26.8267 353.377 25.04H359.417C358.777 27.1733 357.551 28.9333 355.737 30.32C353.924 31.68 351.697 32.36 349.057 32.36C346.924 32.36 345.004 31.8933 343.297 30.96C341.617 30 340.297 28.6533 339.337 26.92C338.404 25.1867 337.937 23.1867 337.937 20.92C337.937 18.6267 338.404 16.6133 339.337 14.88C340.271 13.1467 341.577 11.8133 343.257 10.88C344.937 9.94667 346.871 9.48 349.057 9.48C351.164 9.48 353.044 9.93333 354.697 10.84C356.377 11.7467 357.671 13.04 358.577 14.72C359.511 16.3733 359.977 18.28 359.977 20.44ZM354.177 18.84C354.151 17.4 353.631 16.2533 352.617 15.4C351.604 14.52 350.364 14.08 348.897 14.08C347.511 14.08 346.337 14.5067 345.377 15.36C344.444 16.1867 343.871 17.3467 343.657 18.84H354.177ZM362.625 20.92C362.625 18.6267 363.091 16.6267 364.025 14.92C364.958 13.1867 366.251 11.8533 367.905 10.92C369.558 9.96 371.451 9.48 373.585 9.48C376.331 9.48 378.598 10.1733 380.385 11.56C382.198 12.92 383.411 14.84 384.025 17.32H377.985C377.665 16.36 377.118 15.6133 376.345 15.08C375.598 14.52 374.665 14.24 373.545 14.24C371.945 14.24 370.678 14.8267 369.745 16C368.811 17.1467 368.345 18.7867 368.345 20.92C368.345 23.0267 368.811 24.6667 369.745 25.84C370.678 26.9867 371.945 27.56 373.545 27.56C375.811 27.56 377.291 26.5467 377.985 24.52H384.025C383.411 26.92 382.198 28.8267 380.385 30.24C378.571 31.6533 376.305 32.36 373.585 32.36C371.451 32.36 369.558 31.8933 367.905 30.96C366.251 30 364.958 28.6667 364.025 26.96C363.091 25.2267 362.625 23.2133 362.625 20.92ZM409.047 9.84V32H403.407V29.2C402.687 30.16 401.741 30.92 400.567 31.48C399.421 32.0133 398.167 32.28 396.807 32.28C395.074 32.28 393.541 31.92 392.207 31.2C390.874 30.4533 389.821 29.3733 389.047 27.96C388.301 26.52 387.927 24.8133 387.927 22.84V9.84H393.527V22.04C393.527 23.8 393.967 25.16 394.847 26.12C395.727 27.0533 396.927 27.52 398.447 27.52C399.994 27.52 401.207 27.0533 402.087 26.12C402.967 25.16 403.407 23.8 403.407 22.04V9.84H409.047ZM420.173 13.28C420.893 12.1067 421.826 11.1867 422.973 10.52C424.146 9.85333 425.479 9.52 426.973 9.52V15.4H425.493C423.733 15.4 422.399 15.8133 421.493 16.64C420.613 17.4667 420.173 18.9067 420.173 20.96V32H414.573V9.84H420.173V13.28ZM433.584 7.2C432.598 7.2 431.771 6.89333 431.104 6.28C430.464 5.64 430.144 4.85333 430.144 3.92C430.144 2.98667 430.464 2.21333 431.104 1.6C431.771 0.959998 432.598 0.639998 433.584 0.639998C434.571 0.639998 435.384 0.959998 436.024 1.6C436.691 2.21333 437.024 2.98667 437.024 3.92C437.024 4.85333 436.691 5.64 436.024 6.28C435.384 6.89333 434.571 7.2 433.584 7.2ZM436.344 9.84V32H430.744V9.84H436.344ZM448.397 14.44V25.16C448.397 25.9067 448.571 26.4533 448.917 26.8C449.291 27.12 449.904 27.28 450.757 27.28H453.357V32H449.837C445.117 32 442.757 29.7067 442.757 25.12V14.44H440.117V9.84H442.757V4.36H448.397V9.84H453.357V14.44H448.397ZM478.585 9.84L464.865 42.48H458.905L463.705 31.44L454.825 9.84H461.105L466.825 25.32L472.625 9.84H478.585Z" fill="#800080" fill-opacity="0.81"/>
</svg>
